# xmcd CD database file
#
# Track frame offsets:
#	150
#	22135
#	37094
#	57356
#	74121
#	93531
#	116214
#	140596
#	160139
#	175693
#
# Disc length: 2540 seconds
#
# Revision: 0
# Processed by: cddbd v1.5.2PL0 Copyright (c) Steve Scherf et al.
# Submitted via: CDex 1.50
#
DISCID=9809ea0a
DTITLE=Winter North Atlantic - Phonautogram
DYEAR=2013
DGENRE=Jazz
TTITLE0=Pontop Pike
TTITLE1=Yaga´s Cabin
TTITLE2=Dal Silenzio
TTITLE3=Mistry
TTITLE4=Gamelan
TTITLE5=Books
TTITLE6=Almost Over
TTITLE7=How
TTITLE8=All The Rains Of May
TTITLE9=Rough Shoot
EXTD=YEAR: 2013
EXTT0=
EXTT1=
EXTT2=
EXTT3=
EXTT4=
EXTT5=
EXTT6=
EXTT7=
EXTT8=
EXTT9=
PLAYORDER=
